<svg width="260" height="166" viewBox="0 0 260 166" fill="none" xmlns="http://www.w3.org/2000/svg">
    <g clip-path="url(#clip0_856_3642)">
    <path d="M26.9324 165.5C21.8869 165.645 16.8992 164.393 12.517 161.883C8.5157 159.498 5.2937 155.997 3.24393 151.807C1.10619 147.105 0 141.997 0 136.829C0 131.662 1.10619 126.554 3.24393 121.851C5.29492 117.641 8.51473 114.113 12.517 111.692C16.8923 109.161 21.8829 107.899 26.9324 108.044C33.5804 108.044 39.0288 109.695 43.2776 112.998C47.6228 116.461 50.4755 121.463 51.2468 126.973H40.0754C39.5108 124.152 37.952 121.629 35.684 119.865C33.0786 118.039 29.9417 117.13 26.7656 117.284C21.6475 117.284 17.6351 119.026 14.7283 122.51C11.8216 125.994 10.3891 130.774 10.4308 136.85C10.4308 142.933 11.8807 147.707 14.7805 151.17C17.6803 154.633 21.6927 156.375 26.8177 156.396C29.9715 156.552 33.0935 155.703 35.7361 153.971C37.9772 152.36 39.542 149.972 40.1275 147.271H51.2468C50.4116 152.602 47.5573 157.406 43.2776 160.681C39.0357 163.901 33.5873 165.507 26.9324 165.5Z" fill="#F4F3EC"/>
    <path d="M58.2773 164.601V107.406H68.4162V131.216C69.711 129.064 71.5544 127.297 73.7568 126.095C76.1304 124.818 78.7927 124.177 81.486 124.234C86.3538 124.234 90.1159 125.767 92.7723 128.833C95.4286 131.899 96.7603 136.397 96.7673 142.327V164.601H86.7119V143.278C86.7119 139.892 86.0374 137.3 84.6883 135.502C83.3393 133.704 81.2148 132.805 78.3151 132.805C76.9869 132.771 75.6669 133.022 74.4435 133.541C73.2201 134.06 72.1217 134.836 71.2221 135.815C69.3515 137.829 68.4162 140.617 68.4162 144.177V164.601H58.2773Z" fill="#F4F3EC"/>
    <path d="M118.338 165.5C115.468 165.609 112.612 165.051 109.994 163.869C107.994 162.935 106.314 161.43 105.164 159.542C104.106 157.741 103.558 155.685 103.579 153.595C103.539 151.88 103.905 150.181 104.649 148.636C105.392 147.092 106.491 145.746 107.855 144.71C110.713 142.432 114.994 141.292 120.696 141.292H130.668V140.341C130.668 137.645 129.903 135.659 128.373 134.383C126.758 133.088 124.735 132.414 122.667 132.481C120.768 132.438 118.898 132.95 117.285 133.955C116.53 134.431 115.885 135.064 115.394 135.81C114.903 136.556 114.577 137.399 114.437 138.282H104.538C104.741 135.562 105.747 132.965 107.428 130.819C109.134 128.66 111.364 126.976 113.905 125.928C116.713 124.757 119.731 124.177 122.771 124.224C128.335 124.224 132.743 125.618 135.998 128.405C139.252 131.192 140.859 135.171 140.817 140.341V164.601H132.18L131.231 158.246C130.063 160.365 128.39 162.161 126.36 163.472C123.942 164.921 121.153 165.626 118.338 165.5ZM120.633 157.567C121.904 157.635 123.174 157.412 124.347 156.916C125.52 156.42 126.565 155.663 127.403 154.703C129.067 152.689 130.124 150.242 130.449 147.647H121.822C119.131 147.647 117.201 148.128 116.044 149.111C115.496 149.538 115.055 150.085 114.753 150.71C114.451 151.335 114.296 152.022 114.302 152.717C114.273 153.411 114.417 154.101 114.721 154.725C115.025 155.349 115.48 155.888 116.044 156.292C117.398 157.197 119.007 157.644 120.633 157.567Z" fill="#F4F3EC"/>
    <path d="M149.704 164.601V125.185H158.737L159.686 132.565C161.092 129.964 163.191 127.805 165.749 126.329C168.307 124.853 171.224 124.117 174.174 124.203V134.917H171.327C169.297 134.891 167.281 135.245 165.381 135.962C163.65 136.644 162.208 137.908 161.303 139.537C160.219 141.727 159.717 144.16 159.842 146.602V164.601H149.704Z" fill="#F4F3EC"/>
    <path d="M195.558 165.5C191.968 165.552 188.429 164.647 185.304 162.876C182.292 161.155 179.802 158.648 178.097 155.623C176.347 152.309 175.432 148.616 175.432 144.867C175.432 141.118 176.347 137.426 178.097 134.112C179.813 131.064 182.317 128.537 185.346 126.795C188.48 125.081 191.993 124.182 195.563 124.182C199.133 124.182 202.646 125.081 205.78 126.795C208.798 128.533 211.287 131.062 212.977 134.112C214.727 137.426 215.642 141.118 215.642 144.867C215.642 148.616 214.727 152.309 212.977 155.623C211.269 158.657 208.766 161.165 205.738 162.876C202.633 164.631 199.122 165.535 195.558 165.5ZM195.558 156.689C196.85 156.694 198.129 156.433 199.315 155.92C200.502 155.407 201.57 154.655 202.453 153.71C204.403 151.734 205.384 148.776 205.384 144.867C205.384 140.958 204.403 138 202.453 136.014C201.574 135.068 200.51 134.313 199.328 133.796C198.145 133.28 196.869 133.014 195.579 133.014C194.289 133.014 193.013 133.28 191.83 133.796C190.647 134.313 189.583 135.068 188.705 136.014C186.785 138 185.815 140.948 185.815 144.867C185.815 148.787 186.785 151.734 188.705 153.71C189.578 154.656 190.638 155.41 191.818 155.923C192.998 156.436 194.272 156.697 195.558 156.689Z" fill="#F4F3EC"/>
    <path d="M221.51 164.601V125.186H230.459L231.252 131.854C232.454 129.543 234.279 127.616 236.52 126.293C238.985 124.861 241.797 124.138 244.645 124.203C249.513 124.203 253.286 125.736 255.963 128.802C258.64 131.868 259.986 136.366 260 142.296V164.601H249.871V143.278C249.871 139.892 249.176 137.3 247.785 135.502C246.408 133.704 244.28 132.805 241.37 132.805C240.054 132.767 238.745 133.016 237.534 133.536C236.324 134.056 235.241 134.834 234.361 135.816C232.546 137.833 231.628 140.634 231.628 144.177V164.601H221.51Z" fill="#F4F3EC"/>
    <path d="M88.6622 53.0856L99.6876 72.2133H127.256L141.025 48.3089L130 29.1812H141.025L152.04 48.3089L132.764 81.7562H97.8935C96.7688 81.7567 95.6638 81.4604 94.6897 80.8971C93.7156 80.3338 92.9067 79.5234 92.3443 78.5474L85.0427 65.8374C84.4836 64.8607 84.1895 63.7544 84.1895 62.6285C84.1895 61.5026 84.4836 60.3963 85.0427 59.4197L88.6622 53.0856Z" fill="#2FE4AB"/>
    <path d="M105.216 14.8406L94.1909 33.9474L113.478 67.3947H102.452L85.0222 37.1771C84.4631 36.2005 84.1689 35.0942 84.1689 33.9683C84.1689 32.8424 84.4631 31.7361 85.0222 30.7594L92.3238 18.0494C92.8861 17.0734 93.6951 16.263 94.6692 15.6997C95.6433 15.1364 96.7483 14.8401 97.873 14.8406H105.216Z" fill="#2FE4AB"/>
    <path d="M154.805 53.0856L135.508 86.5329H113.478L117.128 92.8775C117.689 93.8554 118.498 94.6679 119.472 95.2331C120.446 95.7983 121.552 96.0962 122.678 96.0968H137.281C138.416 96.1112 139.534 95.8238 140.522 95.2637C141.509 94.7037 142.331 93.8911 142.903 92.9088L160.333 62.6494L154.805 53.0856Z" fill="#2FE4AB"/>
    <path d="M154.794 81.7771L165.851 62.6494L146.564 29.202H157.589L175.009 59.451C175.573 60.4259 175.87 61.5329 175.87 62.6598C175.87 63.7868 175.573 64.8938 175.009 65.8687L167.707 78.5891C167.145 79.5652 166.336 80.3756 165.362 80.9389C164.388 81.5022 163.283 81.7985 162.158 81.798L154.794 81.7771Z" fill="#2FE4AB"/>
    <path d="M130 67.3947L118.985 48.267L132.753 24.3626H160.301L171.327 43.4903L174.978 37.1457C175.542 36.1689 175.839 35.0602 175.839 33.9316C175.839 32.8031 175.542 31.6944 174.978 30.7176L167.676 18.0076C167.114 17.0315 166.305 16.2211 165.331 15.6578C164.357 15.0945 163.252 14.7982 162.127 14.7987H127.256L107.97 48.2461L118.985 67.3947H130Z" fill="#2FE4AB"/>
    <path d="M105.206 43.5217L99.6982 33.9474L117.128 3.70887C117.691 2.73356 118.5 1.92373 119.474 1.36054C120.448 0.79735 121.553 0.500591 122.677 0.500011H137.281C138.418 0.487669 139.537 0.778294 140.525 1.34213C141.513 1.90597 142.334 2.72275 142.903 3.70887L146.554 10.0639H124.503L105.206 43.5217Z" fill="#2FE4AB"/>
    </g>
    <defs>
    <clipPath id="clip0_856_3642">
    <rect width="260" height="165" fill="white" transform="translate(0 0.5)"/>
    </clipPath>
    </defs>
    </svg>
    