<svg width="384" height="96" viewBox="0 0 384 96" fill="none" xmlns="http://www.w3.org/2000/svg">
    <g clip-path="url(#clip0_856_3611)">
    <path d="M148.074 77.5347C142.974 77.678 137.932 76.4158 133.501 73.8862C129.46 71.4777 126.207 67.946 124.138 63.7212C121.868 59.021 120.745 53.85 120.858 48.6318C120.748 43.4005 121.872 38.2167 124.138 33.5003C126.207 29.2537 129.459 25.6948 133.501 23.2509C137.926 20.7011 142.97 19.4272 148.074 19.5709C154.802 19.5709 160.313 21.2369 164.608 24.569C168.988 28.0535 171.867 33.0834 172.654 38.625H161.371C160.797 35.7782 159.217 33.233 156.921 31.4547C154.303 29.6208 151.151 28.705 147.958 28.8501C142.784 28.8501 138.728 30.6076 135.79 34.1224C132.851 37.6373 131.382 42.4703 131.382 48.6213C131.382 54.7583 132.851 59.5737 135.79 63.0674C138.728 66.5612 142.784 68.3187 147.958 68.3397C151.143 68.497 154.296 67.6405 156.963 65.8934C159.234 64.2662 160.82 61.8538 161.413 59.1237H172.696C171.863 64.5065 168.98 69.3583 164.65 72.663C160.334 75.9178 154.809 77.5417 148.074 77.5347Z" fill="#F4F3EC"/>
    <path d="M179.76 76.5751V18.9803H190.01V42.9483C191.325 40.779 193.192 38.9964 195.419 37.7814C197.815 36.4953 200.503 35.8488 203.222 35.9045C208.143 35.9045 211.946 37.451 214.631 40.5441C217.317 43.6372 218.666 48.1749 218.68 54.1572V76.5751H208.505V55.1168C208.505 51.7003 207.827 49.0852 206.47 47.2716C205.113 45.4579 202.965 44.5511 200.027 44.5511C198.684 44.5159 197.35 44.7688 196.113 45.2926C194.876 45.8164 193.766 46.5991 192.857 47.5879C190.959 49.6265 190.01 52.4384 190.01 56.0236V76.5751H179.76Z" fill="#F4F3EC"/>
    <path d="M240.477 77.5347C237.575 77.647 234.688 77.0839 232.041 75.8897C230.015 74.953 228.315 73.433 227.159 71.5242C226.089 69.7071 225.535 67.6328 225.556 65.5244C225.516 63.7934 225.888 62.0777 226.639 60.5179C227.391 58.9581 228.501 57.5986 229.879 56.5509C232.758 54.2627 237.092 53.1133 242.849 53.1133H252.941V52.1538C252.941 49.4333 252.16 47.4298 250.621 46.1433C248.988 44.8367 246.943 44.1561 244.853 44.2242C242.933 44.1794 241.042 44.6961 239.412 45.711C238.65 46.1903 237.999 46.8267 237.502 47.5777C237.006 48.3287 236.675 49.177 236.533 50.0659H226.526C226.738 47.3269 227.754 44.7115 229.447 42.5476C231.171 40.3807 233.417 38.6864 235.974 37.6233C238.823 36.439 241.884 35.854 244.969 35.9045C250.593 35.9045 255.049 37.3105 258.339 40.1224C261.629 42.9343 263.257 46.9377 263.222 52.1327V76.5751H254.459L253.499 70.164C252.322 72.304 250.63 74.1162 248.575 75.4363C246.14 76.9163 243.324 77.6461 240.477 77.5347ZM242.86 69.5313C244.145 69.5984 245.428 69.3733 246.613 68.8729C247.799 68.3724 248.855 67.6097 249.703 66.6421C251.379 64.6026 252.446 62.1321 252.782 59.5139H244.051C241.331 59.5139 239.384 60.0095 238.21 61.0007C237.658 61.4329 237.213 61.9853 236.908 62.6158C236.603 63.2463 236.446 63.9381 236.449 64.6386C236.42 65.3387 236.565 66.035 236.873 66.6646C237.18 67.2942 237.64 67.8373 238.21 68.2449C239.582 69.1596 241.212 69.6104 242.86 69.5313Z" fill="#F4F3EC"/>
    <path d="M272.194 76.5751V36.9062H281.315L282.275 44.3507C283.697 41.7253 285.821 39.5464 288.409 38.0569C290.997 36.5675 293.947 35.8259 296.932 35.915V46.7127H294.043C291.995 46.6878 289.96 47.0454 288.043 47.7672C286.29 48.4523 284.832 49.7278 283.92 51.3734C282.816 53.5809 282.304 56.0369 282.433 58.5016V76.5751H272.194Z" fill="#F4F3EC"/>
    <path d="M318.548 77.5346C314.935 77.5726 311.376 76.6521 308.235 74.8668C305.154 73.1551 302.601 70.6313 300.854 67.5699C299.013 64.2548 298.085 60.5105 298.165 56.7195C298.084 52.9244 299.024 49.1772 300.885 45.8691C302.623 42.7968 305.154 40.2476 308.214 38.4879C311.382 36.7583 314.933 35.8519 318.542 35.8519C322.152 35.8519 325.703 36.7583 328.871 38.4879C331.923 40.2432 334.442 42.7943 336.157 45.8691C337.996 49.1847 338.92 52.9293 338.836 56.7195C338.918 60.5096 337.994 64.2537 336.157 67.5699C334.435 70.6178 331.916 73.1401 328.871 74.8668C325.725 76.6511 322.164 77.5715 318.548 77.5346ZM318.548 68.6455C319.852 68.6497 321.143 68.385 322.341 67.8679C323.538 67.3509 324.616 66.5925 325.507 65.6403C327.49 63.6368 328.47 60.6632 328.47 56.7195C328.47 52.7758 327.49 49.7917 325.507 47.7882C324.619 46.835 323.544 46.0749 322.35 45.5551C321.155 45.0354 319.866 44.7671 318.564 44.7671C317.261 44.7671 315.972 45.0354 314.777 45.5551C313.583 46.0749 312.508 46.835 311.62 47.7882C309.673 49.7917 308.699 52.7688 308.699 56.7195C308.699 60.6702 309.673 63.6438 311.62 65.6403C312.502 66.5952 313.574 67.3557 314.767 67.8731C315.96 68.3906 317.247 68.6536 318.548 68.6455Z" fill="#F4F3EC"/>
    <path d="M344.784 76.5751V36.9062H353.831L354.632 43.6337C355.834 41.2766 357.681 39.3093 359.957 37.9607C362.446 36.5158 365.285 35.786 368.161 35.8517C373.082 35.8517 376.899 37.3983 379.613 40.4914C382.326 43.5845 383.686 48.1222 383.693 54.1045V76.5751H373.444V55.1168C373.444 51.7003 372.741 49.0852 371.335 47.2716C369.929 45.4579 367.767 44.551 364.85 44.551C363.524 44.5146 362.206 44.7673 360.988 45.2918C359.77 45.8162 358.68 46.5998 357.796 47.5879C355.954 49.6265 355.033 52.4384 355.033 56.0236V76.5751H344.784Z" fill="#F4F3EC"/>
    <path d="M4.89857 53.0499L16.0442 72.3465H43.882L57.8115 48.231L46.6658 28.9343H57.8115L68.9466 48.231L49.4601 81.9738H14.2095C13.0725 81.9743 11.9555 81.6753 10.9707 81.1071C9.98596 80.5388 9.16821 79.7212 8.59973 78.7366L1.2185 65.9143C0.653329 64.929 0.355957 63.813 0.355957 62.6771C0.355957 61.5413 0.653329 60.4252 1.2185 59.4399L4.89857 53.0499Z" fill="#2FE4AB"/>
    <path d="M21.612 14.4672L10.4663 33.7427L29.9633 67.4855H18.8177L1.1976 37.001C0.64211 36.0221 0.350098 34.9158 0.350098 33.7902C0.350098 32.6646 0.64211 31.5583 1.1976 30.5793L8.57883 17.7571C9.14731 16.7724 9.96506 15.9549 10.9498 15.3866C11.9346 14.8183 13.0516 14.5194 14.1886 14.5199L21.612 14.4672Z" fill="#2FE4AB"/>
    <path d="M71.7306 53.05L52.2336 86.7928H29.9634L33.654 93.1934C34.2211 94.18 35.0383 94.9997 36.0232 95.5699C37.008 96.1401 38.1257 96.4406 39.2637 96.4412H54.1106C55.2473 96.4406 56.3639 96.1412 57.3485 95.573C58.3331 95.0049 59.151 94.1879 59.7203 93.204L77.3087 62.6984L71.7306 53.05Z" fill="#2FE4AB"/>
    <path d="M71.7302 81.995L82.8759 62.6984L63.3789 28.9556H74.514L92.1341 59.4506C92.7044 60.4341 93.0048 61.5509 93.0048 62.6878C93.0048 63.8247 92.7044 64.9415 92.1341 65.925L84.6896 78.7578C84.1211 79.7425 83.3034 80.56 82.3186 81.1283C81.3339 81.6966 80.2168 81.9955 79.0798 81.995H71.7302Z" fill="#2FE4AB"/>
    <path d="M46.6665 67.4857L35.5314 48.2312L49.4503 24.1156H77.3092L88.4549 43.4123L92.1455 37.0117C92.7157 36.0262 93.0159 34.9078 93.0159 33.7692C93.0159 32.6307 92.7157 31.5122 92.1455 30.5267L84.6904 17.7045C84.122 16.7198 83.3042 15.9023 82.3195 15.334C81.3347 14.7657 80.2177 14.4668 79.0807 14.4673H43.8827L24.3857 48.2101L35.5314 67.4857H46.6665Z" fill="#2FE4AB"/>
    <path d="M21.6017 43.4017L16.0342 33.7428L33.6542 3.2372C34.2227 2.25256 35.0405 1.43499 36.0252 0.866719C37.01 0.298448 38.127 -0.000481552 39.264 5.82292e-07H54.1108C55.2476 0.000585928 56.3642 0.299965 57.3488 0.86813C58.3333 1.43629 59.1513 2.25328 59.7206 3.2372L63.4112 9.64833H41.1093L21.6017 43.4017Z" fill="#2FE4AB"/>
    </g>
    <defs>
    <clipPath id="clip0_856_3611">
    <rect width="382.989" height="96" fill="white" transform="translate(0.333496)"/>
    </clipPath>
    </defs>
    </svg>
    