<svg xmlns="http://www.w3.org/2000/svg" xmlns:xlink="http://www.w3.org/1999/xlink" viewBox="0 0 348.04 348.03"><defs><style>.cls-1{fill:url(#linear-gradient);}.cls-2{fill:url(#linear-gradient-2);}.cls-3{fill:url(#linear-gradient-3);}</style><linearGradient id="linear-gradient" x1="43" y1="211.77" x2="189.1" y2="65.67" gradientUnits="userSpaceOnUse"><stop offset="0" stop-color="#19314b"/><stop offset="0.32" stop-color="#37606b"/><stop offset="0.67" stop-color="#61ac9f"/><stop offset="1" stop-color="#81bba3"/></linearGradient><linearGradient id="linear-gradient-2" x1="126.28" y1="274.2" x2="311.27" y2="89.22" xlink:href="#linear-gradient"/><linearGradient id="linear-gradient-3" x1="52.98" y1="295.05" x2="360.86" y2="-12.82" xlink:href="#linear-gradient"/></defs><g id="Layer_2" data-name="Layer 2"><g id="Layer_1-2" data-name="Layer 1"><path class="cls-1" d="M62.65,181.27c5.43,0,13.48,1,25.23,4.56-17.93,8.06-29.64,9.8-34.53,7.68-1.16-.5-2.42-1.32-2.66-4.67-.3-4.15,1.35-5.15,2.23-5.69C54,182.49,56.79,181.27,62.65,181.27Z"/><path class="cls-2" d="M294.41,165.55c0,28.44-9.82,49.63-27.66,59.67-22.59,12.72-56.22,7.46-92.26-14.41a466.53,466.53,0,0,0-51.42-27.27,515.78,515.78,0,0,0,56-40c36.1-29.3,70.39-40.73,91.75-30.55C286.24,120.34,294.41,138.52,294.41,165.55Z"/><path class="cls-3" d="M174,0A174,174,0,1,0,348,174,174,174,0,0,0,174,0Zm99.9,238c-10.27,5.78-22.18,8.63-35.22,8.63-21.65,0-46.4-7.87-71.79-23.28-21.32-12.94-41.67-23.36-59.78-30.66-2.06,1.1-4.08,2.14-6.09,3.14C76.59,208,58.6,211.71,47.54,206.93c-6.79-2.94-10.85-9-11.43-17-.61-8.4,2.66-15.23,9.18-19.22,10-6.11,27.26-5.25,51.28,2.56q4.65,1.52,9.53,3.34c17.44-9.79,38.79-24.16,63.72-44.39C211,98.74,250.1,86.93,277.07,99.78c20.61,9.82,32,33.17,32,65.77C309,199.5,296.56,225.22,273.92,238Z"/></g></g></svg>