<svg xmlns="http://www.w3.org/2000/svg" viewBox="0 0 1632.71 383.26"><defs><style>.cls-1{fill:#f4f3ec;}</style></defs><g id="Layer_2" data-name="Layer 2"><g id="Logos"><path class="cls-1" d="M954.35,331.22q-40.82,0-71.32-17.88a126.41,126.41,0,0,1-47.81-49.55q-17.29-31.68-17.29-73.27t17.29-73.26A126.5,126.5,0,0,1,883,67.7q30.51-17.87,71.32-17.88,40.42,0,71.13,17.88a124.85,124.85,0,0,1,47.8,49.56q17.1,31.68,17.11,73.26t-17.11,73.27a124.76,124.76,0,0,1-47.8,49.55Q994.78,331.22,954.35,331.22Zm0-44.7q38.86,0,62-25.65t23.13-70.35q0-44.69-23.13-70.35t-62-25.65q-38.86,0-62.19,25.65t-23.32,70.35q0,44.7,23.32,70.35T954.35,286.52Z"/><path class="cls-1" d="M1236.4,331.22q-21.76,0-38.09-8.16a68.65,68.65,0,0,1-26.43-22.93l-5.44,26.43h-44.31V46.71h49.75V161.37a88.67,88.67,0,0,1,24.68-22.54q15.36-9.72,39.84-9.72,27.21,0,48.59,13.22a94.78,94.78,0,0,1,33.81,36.14q12.43,22.93,12.44,52.08t-12.44,51.89A93.63,93.63,0,0,1,1285,318.2Q1263.6,331.22,1236.4,331.22Zm-10.49-43.53q23.7,0,39.26-15.94t15.54-41.2q0-25.26-15.54-41.58t-39.26-16.33q-24.11,0-39.45,16.13t-15.35,41.4q0,25.26,15.35,41.39T1225.91,287.69Z"/><path class="cls-1" d="M1453.86,331.22q-28,0-50.33-12.83a94.13,94.13,0,0,1-35.37-35.56q-13-22.74-13-52.66t13.21-52.67a95.58,95.58,0,0,1,35.57-35.56q22.35-12.83,50.33-12.83,27.6,0,50,12.83a94.28,94.28,0,0,1,35.37,35.56q13,22.74,13,52.67t-13,52.66A93.8,93.8,0,0,1,1504,318.39Q1481.46,331.23,1453.86,331.22Zm0-43.14q19.44,0,33.82-14.58t14.38-43.33q0-28.77-14.38-43.34t-33.43-14.58q-19.82,0-34,14.58t-14.18,43.34q0,28.76,14.18,43.33T1453.86,288.08Z"/><path class="cls-1" d="M1583,326.56V46.71h49.75V326.56Z"/><path class="cls-1" d="M477.08,383.26c-47.61,0-96.21-18.06-145-54-36.62-26.92-66.29-51.16-92.48-72.55l-2.43-2-13.92,13.1c-41.47,39-75.15,63.17-114.91,63.17C50.62,331,0,283.82,0,230c0-57,54.45-101.3,101.3-101.3,49,0,86.56,22.7,133.28,59.28C300.06,126.57,365.14,67.07,414.43,34.31c63.27-42.05,160.54-52.45,224,9,72,69.71,45.47,203.91-3.63,262.08-18.33,21.71-57.83,60.11-116.49,73.24A188.09,188.09,0,0,1,477.08,383.26ZM274.19,219.94c25.05,20.46,53.39,43.51,87.73,68.77h0c44.07,32.41,82.87,44.07,115.86,44.07,59.14,0,99.61-37.45,118.53-59.86,53.06-62.85,40.87-160.64,7.08-193.37-49.56-48-123.47-28.25-161.06-3.27C397.49,106.08,336.36,161.7,274.19,219.94ZM101.3,179.1c-22.44,0-50.91,24-50.91,50.91,0,26,28.16,50.63,57.93,50.63,20,0,42.52-13.88,80.38-49.49l8.73-8.21C161.12,195.06,133.24,179.1,101.3,179.1Z"/></g></g></svg>