<svg xmlns="http://www.w3.org/2000/svg" xmlns:xlink="http://www.w3.org/1999/xlink" viewBox="0 0 319.39 60.06">
    <defs>
        <style>.cls-1{fill:none;stroke-miterlimit:10;stroke-width:6px;stroke:white;}.cls-2{fill:white;}</style>

    </defs>
    <g id="Layer_2" data-name="Layer 2">
        <g id="Layer_1-2" data-name="Layer 1">
            <path class="cls-2" d="M184.59,30a26,26,0,0,1-2,10.11,25.37,25.37,0,0,1-5.78,8.45,27.18,27.18,0,0,1-37.9,0A25.48,25.48,0,0,1,131.1,30a26,26,0,0,1,2-10.14,25.48,25.48,0,0,1,5.83-8.49,26.59,26.59,0,0,1,8.69-5.64,27.52,27.52,0,0,1,20.5,0,26.46,26.46,0,0,1,8.71,5.64,25.31,25.31,0,0,1,5.78,8.46A26.26,26.26,0,0,1,184.59,30ZM157.84,50.66a20.13,20.13,0,0,0,7.82-1.55,21,21,0,0,0,6.69-4.53,20.29,20.29,0,0,0,6-14.56,20.81,20.81,0,0,0-1.56-8,20.12,20.12,0,0,0-4.46-6.7,20.67,20.67,0,0,0-22.41-4.48,19.77,19.77,0,0,0-6.6,4.48,20.55,20.55,0,0,0-4.48,6.73,20.76,20.76,0,0,0-1.54,8,20.49,20.49,0,0,0,1.52,7.86A21.21,21.21,0,0,0,150,49.12,20,20,0,0,0,157.84,50.66Z" />
            <path class="cls-2" d="M194.3,54.93v-50h10.42a41.74,41.74,0,0,1,8.12.57,11.66,11.66,0,0,1,4.49,1.93A11.9,11.9,0,0,1,221,12a14.07,14.07,0,0,1,1.32,6.1,11.08,11.08,0,0,1-1.9,6.63,9.9,9.9,0,0,1-5.52,3.73,10.61,10.61,0,0,1,7,4,13.06,13.06,0,0,1,2.59,8.32,15.36,15.36,0,0,1-1.1,5.75,13.78,13.78,0,0,1-3,4.68,11.75,11.75,0,0,1-5.23,2.94q-3.1.86-10.46.85Zm5.81-44.87V26.8h4.61q6.36,0,9-1.84c1.73-1.23,2.59-3.31,2.59-6.22q0-4.83-2.4-6.75t-9.15-1.93Zm0,21.43V49.74h4.61a43.54,43.54,0,0,0,6.85-.38,8,8,0,0,0,3.37-1.3,7.28,7.28,0,0,0,2.43-3,10.29,10.29,0,0,0,.89-4.31A10.18,10.18,0,0,0,217.2,36a7.63,7.63,0,0,0-3.08-3.14,8.61,8.61,0,0,0-2.77-1,28.71,28.71,0,0,0-4.89-.3h-6.35Z" />
            <path class="cls-2" d="M284.84,30a26,26,0,0,1-2,10.11,25.37,25.37,0,0,1-5.78,8.45,27.18,27.18,0,0,1-37.9,0,26.16,26.16,0,0,1-5.83-28.7,25.48,25.48,0,0,1,5.83-8.49,26.48,26.48,0,0,1,8.69-5.64,27.52,27.52,0,0,1,20.5,0,26.46,26.46,0,0,1,8.71,5.64,25.31,25.31,0,0,1,5.78,8.46A26.26,26.26,0,0,1,284.84,30ZM258.09,50.66a20.13,20.13,0,0,0,7.82-1.55,21,21,0,0,0,6.69-4.53,20.29,20.29,0,0,0,6-14.56,20.81,20.81,0,0,0-1.56-8,20.39,20.39,0,0,0-19-12.72,20.63,20.63,0,0,0-7.9,1.54,19.67,19.67,0,0,0-6.6,4.48,20.55,20.55,0,0,0-4.48,6.73,20.76,20.76,0,0,0-1.54,8,20.49,20.49,0,0,0,1.52,7.86,20.91,20.91,0,0,0,4.5,6.7,20.68,20.68,0,0,0,6.69,4.54A19.93,19.93,0,0,0,258.09,50.66Z" />
            <path class="cls-2" d="M294.55,54.93v-50h5.94V49.26h18.9v5.67Z" />
            <path class="cls-1" d="M104.72,28c0,28.49-23.09,37.56-51.58,20.28S2.21,26.13,3,37.39,26.93,39.58,54.6,17.11,104.72-.47,104.72,28Z" />
        </g>
    </g>
</svg>