<svg xmlns="http://www.w3.org/2000/svg" viewBox="0 0 689.93 387.3"><defs><style>.cls-1{fill:#f4f3ec;}</style></defs><g id="Layer_2" data-name="Layer 2"><g id="Logos"><path class="cls-1" d="M482.12,387.3c-48.11,0-97.23-18.24-146.56-54.52-37-27.21-67-51.71-93.45-73.32l-2.46-2-14.06,13.24c-41.91,39.41-76,63.84-116.13,63.84C51.15,334.53,0,286.82,0,232.43c0-57.65,55-102.37,102.37-102.37,49.52,0,87.48,22.95,134.69,59.91C303.23,127.9,369,67.78,418.8,34.67c63.94-42.5,162.24-53,226.39,9.14,72.72,70.44,45.95,206.06-3.67,264.84-18.52,22-58.44,60.74-117.72,74A190.17,190.17,0,0,1,482.12,387.3Zm-205-165c25.32,20.68,54,44,88.66,69.49h0c44.54,32.76,83.75,44.54,117.08,44.55,59.77,0,100.67-37.85,119.78-60.5,53.62-63.52,41.3-162.33,7.16-195.41C559.68,31.88,485,51.84,447,77.08,401.68,107.2,339.91,163.41,277.08,222.26ZM102.37,181c-22.68,0-51.44,24.22-51.44,51.44,0,26.3,28.45,51.17,58.53,51.17,20.2,0,43-14,81.23-50l8.82-8.3C162.82,197.12,134.65,181,102.37,181Z"/></g></g></svg>