<svg width="93" height="96" viewBox="0 0 93 96" fill="none" xmlns="http://www.w3.org/2000/svg">
    <g clip-path="url(#clip0_1016_21565)">
    <path d="M4.54429 52.7958L15.6365 72H43.341L57.2037 48L46.1114 28.7958H57.2037L68.2854 48L48.8923 81.5811H13.8106C12.6791 81.5816 11.5674 81.2841 10.5873 80.7185C9.6073 80.153 8.79347 79.3393 8.22771 78.3594L0.881845 65.5986C0.319385 64.618 0.0234375 63.5073 0.0234375 62.3769C0.0234375 61.2465 0.319385 60.1357 0.881845 59.1552L4.54429 52.7958Z" fill="#000000"/>
    <path d="M21.1776 14.3979L10.0853 33.5812L29.4889 67.1623H18.3967L0.861018 36.8238C0.308191 35.8496 0.0175781 34.7486 0.0175781 33.6284C0.0175781 32.5082 0.308191 31.4072 0.861018 30.4329L8.20689 17.6721C8.77264 16.6922 9.58647 15.8785 10.5665 15.313C11.5465 14.7474 12.6582 14.4499 13.7897 14.4504L21.1776 14.3979Z" fill="#000000"/>
    <path d="M71.0564 52.7958L51.6528 86.3769H29.4893L33.1622 92.7468C33.7266 93.7287 34.5399 94.5444 35.52 95.1119C36.5001 95.6793 37.6125 95.9784 38.745 95.979H53.5207C54.652 95.9784 55.7633 95.6805 56.7432 95.115C57.723 94.5496 58.537 93.7365 59.1036 92.7573L76.6077 62.3979L71.0564 52.7958Z" fill="#000000"/>
    <path d="M71.0555 81.6021L82.1477 62.3979L62.7441 28.8168H73.8259L91.3615 59.1657C91.9291 60.1445 92.2281 61.2559 92.2281 62.3874C92.2281 63.5189 91.9291 64.6303 91.3615 65.6091L83.9527 78.3804C83.387 79.3603 82.5731 80.174 81.5931 80.7395C80.6131 81.3051 79.5014 81.6026 78.3698 81.6021H71.0555Z" fill="#000000"/>
    <path d="M46.1115 67.1623L35.0298 48L48.882 24H76.6074L87.6996 43.2042L91.3726 36.8343C91.94 35.8536 92.2388 34.7405 92.2388 33.6074C92.2388 32.4743 91.94 31.3612 91.3726 30.3805L83.9532 17.6196C83.3875 16.6397 82.5737 15.8261 81.5936 15.2605C80.6136 14.695 79.5019 14.3975 78.3704 14.3979H43.3411L23.9375 47.9791L35.0298 67.1623H46.1115Z" fill="#000000"/>
    <path d="M21.1669 43.1937L15.626 33.5811L33.1616 3.22169C33.7274 2.24177 34.5412 1.42811 35.5212 0.862566C36.5013 0.297018 37.613 -0.000479245 38.7445 5.79502e-07H53.5202C54.6515 0.00058312 55.7627 0.298528 56.7426 0.86397C57.7224 1.42941 58.5364 2.24249 59.103 3.22169L62.776 9.6021H40.5809L21.1669 43.1937Z" fill="#000000"/>
    </g>
    <defs>
    <clipPath id="clip0_1016_21565">
    <rect width="92.2326" height="96" fill="white"/>
    </clipPath>
    </defs>
    </svg>
    