<svg width="93" height="96" viewBox="0 0 93 96" fill="none" xmlns="http://www.w3.org/2000/svg">
    <g clip-path="url(#clip0_856_3557)">
    <path d="M4.5438 52.7958L15.6361 72H43.3405L57.2032 48L46.1109 28.7958H57.2032L68.285 48L48.8919 81.5811H13.8101C12.6786 81.5816 11.5669 81.2841 10.5868 80.7185C9.60681 80.153 8.79298 79.3393 8.22723 78.3594L0.881357 65.5986C0.318897 64.618 0.0229492 63.5073 0.0229492 62.3769C0.0229492 61.2465 0.318897 60.1357 0.881357 59.1552L4.5438 52.7958Z" fill="#2FE4AB"/>
    <path d="M21.1771 14.3979L10.0848 33.5812L29.4884 67.1623H18.3962L0.86053 36.8238C0.307703 35.8496 0.0170898 34.7486 0.0170898 33.6284C0.0170898 32.5082 0.307703 31.4072 0.86053 30.4329L8.2064 17.6721C8.77215 16.6922 9.58598 15.8785 10.566 15.313C11.5461 14.7474 12.6577 14.4499 13.7893 14.4504L21.1771 14.3979Z" fill="#2FE4AB"/>
    <path d="M71.0554 52.7958L51.6518 86.3769H29.4883L33.1612 92.7468C33.7256 93.7287 34.5389 94.5444 35.519 95.1119C36.4992 95.6793 37.6115 95.9784 38.7441 95.979H53.5198C54.6511 95.9784 55.7623 95.6805 56.7422 95.115C57.722 94.5496 58.5361 93.7365 59.1026 92.7573L76.6068 62.3979L71.0554 52.7958Z" fill="#2FE4AB"/>
    <path d="M71.0555 81.6021L82.1477 62.3979L62.7441 28.8168H73.8259L91.3615 59.1657C91.9291 60.1445 92.2281 61.2559 92.2281 62.3874C92.2281 63.5189 91.9291 64.6303 91.3615 65.6091L83.9527 78.3804C83.387 79.3603 82.5731 80.174 81.5931 80.7395C80.6131 81.3051 79.5014 81.6026 78.3698 81.6021H71.0555Z" fill="#2FE4AB"/>
    <path d="M46.111 67.1623L35.0293 48L48.8815 24H76.6069L87.6991 43.2042L91.3721 36.8343C91.9395 35.8536 92.2383 34.7405 92.2383 33.6074C92.2383 32.4743 91.9395 31.3612 91.3721 30.3805L83.9527 17.6196C83.387 16.6397 82.5732 15.8261 81.5931 15.2605C80.6131 14.695 79.5014 14.3975 78.3699 14.3979H43.3406L23.937 47.9791L35.0293 67.1623H46.111Z" fill="#2FE4AB"/>
    <path d="M21.1664 43.1937L15.6255 33.5811L33.1611 3.22169C33.7269 2.24177 34.5407 1.42811 35.5207 0.862566C36.5008 0.297018 37.6125 -0.000479245 38.744 5.79502e-07H53.5197C54.651 0.00058312 55.7622 0.298528 56.7421 0.86397C57.722 1.42941 58.536 2.24249 59.1025 3.22169L62.7755 9.6021H40.5804L21.1664 43.1937Z" fill="#2FE4AB"/>
    </g>
    <defs>
    <clipPath id="clip0_856_3557">
    <rect width="92.2326" height="96" fill="white"/>
    </clipPath>
    </defs>
    </svg>
    