<svg xmlns="http://www.w3.org/2000/svg" xmlns:xlink="http://www.w3.org/1999/xlink" viewBox="0 0 981.05 981.05"><defs><style>.cls-1{fill:#f4f3ec;}.cls-2{fill:#0f7c76;}.cls-3,.cls-4,.cls-5{opacity:0.92;}.cls-3{fill:url(#linear-gradient);}.cls-5{fill:url(#linear-gradient-2);}</style><linearGradient id="linear-gradient" x1="349.08" y1="526.59" x2="269.37" y2="606.31" gradientUnits="userSpaceOnUse"><stop offset="0" stop-color="#192d31"/><stop offset="1" stop-color="#0f7c76"/></linearGradient><linearGradient id="linear-gradient-2" x1="401.11" y1="504.26" x2="479.78" y2="425.6" xlink:href="#linear-gradient"/></defs><g id="Layer_2" data-name="Layer 2"><g id="Logos"><circle class="cls-1" cx="490.53" cy="490.53" r="490.53"/><path class="cls-2" d="M621.68,682.16c-47.61,0-96.22-18.06-145-54C440,601.27,410.37,577,384.18,555.65l-2.43-2-13.92,13.1c-41.47,39-75.16,63.17-114.91,63.17-57.71,0-108.32-47.21-108.32-101,0-57,54.45-101.3,101.3-101.3,49,0,86.56,22.71,133.28,59.28C444.66,425.47,509.74,366,559,333.21c63.27-42.06,160.54-52.45,224,9,72,69.71,45.47,203.9-3.63,262.08-18.33,21.71-57.83,60.1-116.49,73.24A188.09,188.09,0,0,1,621.68,682.16ZM418.78,518.84c25.05,20.46,53.4,43.51,87.73,68.76h0c44.08,32.42,82.88,44.08,115.86,44.08,59.15,0,99.62-37.45,118.54-59.86C794,509,781.78,411.18,748,378.45c-49.55-48-123.46-28.26-161.06-3.27C542.08,405,481,460.6,418.78,518.84ZM245.9,478C223.46,478,195,502,195,528.9c0,26,28.15,50.64,57.93,50.64,20,0,42.52-13.88,80.38-49.49l8.72-8.21C305.72,494,277.84,478,245.9,478Z"/><path class="cls-3" d="M333.3,530.05c-37.87,35.61-60.4,49.49-80.38,49.49a57.46,57.46,0,0,1-14.56-1.94v51.32a106.4,106.4,0,0,0,14.56,1c39.75,0,73.44-24.17,114.91-63.17l13.92-13.1L342,521.84Z"/><g class="cls-4"><path class="cls-5" d="M379.18,486.88l39.6,32c28.19-26.41,56.16-52.26,82.5-75.43l-35.7-35.7C437.78,432.23,408.52,459.36,379.18,486.88Z"/></g></g></g></svg>